<?xml version="1.0" standalone="no"?>
<!DOCTYPE svg PUBLIC "-//W3C//DTD SVG 20010904//EN"
 "http://www.w3.org/TR/2001/REC-SVG-20010904/DTD/svg10.dtd">
<svg version="1.0" xmlns="http://www.w3.org/2000/svg"
 width="613.000000pt" height="816.000000pt" viewBox="0 0 613.000000 816.000000"
 preserveAspectRatio="xMidYMid meet">

<g transform="translate(0.000000,816.000000) scale(0.100000,-0.100000)"
fill="#000000" stroke="none">
<path d="M3225 7106 c-11 -8 -32 -16 -46 -16 -33 0 -67 -36 -75 -80 -9 -46
-31 -90 -47 -91 -6 -1 -1 -4 13 -8 22 -7 21 -8 -18 -15 -45 -8 -140 0 -176 14
-12 5 -16 9 -9 9 24 2 -19 104 -51 119 -48 24 -120 42 -169 42 -70 0 -227 -45
-301 -87 -89 -51 -114 -90 -48 -78 26 5 34 3 27 -4 -6 -6 -35 -15 -64 -21 -29
-5 -57 -12 -62 -15 -17 -11 -9 -44 11 -50 25 -8 46 -57 66 -154 18 -86 48
-157 72 -166 14 -5 14 -4 0 12 -15 17 -36 75 -57 159 -14 52 -14 149 -1 174 8
16 35 28 80 35 8 2 31 8 50 14 19 6 69 10 110 10 41 -1 66 -3 55 -6 -11 -2
-31 -6 -45 -9 l-25 -6 30 -12 30 -13 -23 -12 c-15 -8 -49 -11 -98 -7 -65 4
-76 2 -87 -15 -8 -10 -17 -16 -21 -12 -13 13 7 -31 26 -59 25 -36 73 -57 126
-55 34 1 42 5 42 20 0 10 -9 21 -20 24 -23 6 -38 49 -22 65 14 14 32 1 32 -23
0 -11 11 -24 25 -31 14 -6 25 -15 25 -20 0 -4 6 -8 14 -8 12 0 12 -5 -1 -31
-13 -26 -19 -30 -42 -25 -23 6 -24 5 -7 -5 12 -7 39 -9 73 -5 52 6 62 9 112
35 30 16 98 5 119 -20 8 -10 20 -15 25 -12 14 9 1 -49 -22 -102 -22 -49 -61
-74 -150 -95 -54 -13 -215 -9 -257 6 -14 5 -16 4 -9 -4 6 -6 55 -14 109 -18
66 -5 93 -10 82 -16 -9 -5 -16 -16 -16 -23 0 -8 -4 -15 -9 -15 -5 0 -14 -12
-20 -27 -5 -16 -23 -45 -38 -66 -91 -122 -87 -113 -87 -198 0 -77 -1 -79 -26
-81 -59 -3 -69 1 -118 50 -24 23 -48 42 -53 42 -5 0 -9 6 -9 14 0 20 -26 26
-87 21 -49 -3 -53 -2 -53 18 -1 18 -2 19 -10 6 -19 -32 26 -205 80 -314 28
-55 50 -108 50 -117 0 -21 58 -97 109 -144 24 -21 38 -41 34 -50 -3 -8 1 -14
10 -14 15 0 32 -27 28 -44 -1 -5 7 -6 18 -3 13 3 18 0 15 -7 -3 -7 4 -21 16
-31 11 -10 20 -24 20 -32 0 -7 4 -13 8 -13 5 0 15 -11 22 -25 7 -13 16 -24 19
-23 36 4 71 -4 71 -17 0 -9 10 -15 26 -15 14 0 23 -4 19 -10 -5 -9 1 -12 21
-9 4 0 10 -3 13 -8 3 -5 27 -21 54 -36 26 -15 47 -32 47 -37 0 -15 42 -24 98
-21 44 2 51 0 46 -13 -4 -11 -20 -16 -48 -17 l-41 -2 35 -6 c27 -5 31 -8 18
-13 -10 -4 -25 -5 -33 -2 -11 5 -15 -1 -15 -20 0 -22 3 -25 17 -18 12 7 24 4
45 -11 23 -17 25 -23 15 -36 -8 -10 -9 -13 0 -8 18 11 83 -24 83 -44 0 -13 -6
-16 -22 -11 -13 3 -19 1 -15 -5 5 -7 -10 -9 -41 -7 -26 2 -62 5 -79 6 -18 0
-33 7 -33 13 0 6 -11 17 -25 23 -14 6 -25 16 -25 22 0 8 -28 24 -60 33 -5 1
-112 60 -160 88 -14 8 -27 16 -30 19 -22 24 -160 128 -160 122 0 -9 80 -86
131 -127 31 -25 272 -185 320 -212 32 -18 45 -20 105 -13 38 4 80 12 94 18 34
13 282 181 288 195 2 4 8 7 13 7 17 0 153 107 208 164 30 30 62 72 71 92 18
38 16 74 -4 74 -8 0 -8 2 0 8 15 9 28 52 16 52 -9 0 -5 31 16 112 5 20 33 63
61 95 60 70 119 192 133 277 12 70 18 167 12 178 -3 4 -16 -3 -30 -17 -14 -14
-39 -32 -57 -41 -18 -9 -49 -33 -70 -53 -31 -30 -39 -33 -47 -21 -8 13 -10 12
-11 -2 -1 -10 -3 -22 -4 -28 -1 -5 -3 -15 -4 -20 0 -6 -12 -8 -26 -6 -14 3
-31 -2 -39 -10 -20 -20 -26 -18 -26 10 0 30 31 86 48 86 6 0 12 9 12 19 0 11
2 26 6 34 6 17 -68 99 -87 96 -8 -1 -31 6 -52 16 -31 16 -37 23 -31 40 13 40
11 90 -5 97 -9 3 16 6 55 6 119 1 195 23 237 70 22 24 50 100 78 211 21 85 33
105 56 96 17 -6 26 11 18 34 -4 13 -29 25 -86 41 -47 14 -75 26 -68 31 23 14
-10 66 -65 103 -82 57 -147 77 -266 83 -85 4 -109 2 -125 -11z m-788 -172 c-3
-3 -12 -4 -19 -1 -8 3 -5 6 6 6 11 1 17 -2 13 -5z m290 -50 c-3 -3 -12 -4 -19
-1 -8 3 -5 6 6 6 11 1 17 -2 13 -5z m964 -5 c11 -5 16 -15 13 -21 -5 -7 -2 -9
8 -5 54 20 21 -267 -38 -330 -32 -35 -112 -53 -234 -55 -175 -1 -227 25 -268
135 -29 75 -28 84 8 92 24 5 32 14 37 37 l6 31 18 -24 c10 -13 19 -30 19 -37
0 -26 207 -8 268 24 18 9 31 10 45 3 14 -8 23 -7 36 5 10 9 22 16 28 16 17 0
21 21 11 59 -5 18 -8 41 -5 51 3 13 -1 17 -17 14 -20 -4 -20 -4 -1 5 27 13 43
13 66 0z m-638 -83 c6 -57 35 -126 72 -166 12 -14 25 -38 29 -53 4 -16 17 -37
29 -48 72 -62 87 -80 87 -100 0 -38 -28 -59 -79 -59 -25 0 -62 -5 -81 -10 -88
-26 -133 -30 -174 -16 -23 8 -73 17 -112 19 -66 4 -71 3 -67 -14 9 -32 -34
-58 -94 -59 -29 0 -53 4 -53 9 0 14 71 72 102 83 20 7 28 17 28 35 0 28 16 47
47 57 36 12 70 54 94 119 12 34 32 82 44 107 15 29 21 56 18 76 -8 52 11 74
61 74 l43 0 6 -54z m427 15 c0 -15 -28 -40 -46 -41 -8 0 -8 11 -1 39 9 34 13
38 29 28 10 -7 18 -18 18 -26z m-177 -40 c-2 -3 -13 5 -25 17 -18 18 -19 23
-8 37 12 15 15 13 25 -17 6 -18 10 -35 8 -37z m-604 2 c-20 -24 -36 -15 -31
17 4 30 5 30 23 14 14 -13 16 -20 8 -31z m472 24 c-10 -9 -11 -8 -5 6 3 10 9
15 12 12 3 -3 0 -11 -7 -18z m193 -445 c2 -4 1 -14 -4 -22 -7 -11 -11 -11 -24
-1 -9 7 -13 17 -10 22 7 11 31 12 38 1z m-124 -253 c0 -6 9 -8 20 -4 29 9 25
-13 -7 -44 -22 -20 -41 -26 -88 -30 -70 -6 -232 -7 -290 -3 -22 2 -50 1 -61
-3 -16 -5 -23 -2 -27 14 -3 14 -10 19 -21 15 -20 -8 -46 13 -46 36 0 15 10 17
83 14 177 -6 225 -6 305 -2 45 3 85 8 89 12 10 10 43 7 43 -5z m148 -39 c12 0
14 -108 2 -115 -5 -3 -10 -16 -10 -28 0 -12 -14 -49 -30 -82 -17 -33 -30 -65
-30 -72 0 -7 -4 -13 -8 -13 -5 0 -15 -11 -22 -25 -7 -14 -18 -25 -23 -25 -5 0
-22 -13 -37 -29 -20 -20 -31 -26 -39 -18 -7 7 -19 6 -40 -3 -17 -7 -43 -10
-58 -7 -15 3 -35 0 -45 -7 -14 -8 -20 -8 -27 2 -4 7 -15 10 -25 6 -10 -4 -27
-2 -39 4 -12 6 -53 16 -92 22 -132 20 -133 21 -160 55 -14 19 -25 38 -25 43 0
5 -7 15 -15 22 -8 7 -15 21 -15 31 0 10 -9 36 -21 58 -19 38 -30 153 -16 168
9 8 67 -17 67 -29 0 -6 11 -7 25 -4 17 4 25 2 25 -7 0 -9 22 -13 88 -12 48 0
143 -3 211 -6 85 -5 131 -3 143 4 28 18 49 -8 22 -27 -20 -16 -90 -36 -122
-36 -11 0 -22 -8 -24 -18 -6 -21 -100 -42 -187 -42 -51 0 -51 0 -45 -27 4 -15
13 -34 20 -41 7 -7 21 -26 31 -43 10 -16 28 -32 40 -35 12 -3 20 -11 17 -19
-4 -9 2 -11 20 -8 15 3 32 1 39 -5 8 -7 25 -8 47 -2 119 29 158 60 165 136 2
19 9 41 15 49 10 13 8 15 -14 15 -15 0 -34 6 -42 14 -19 20 -18 28 5 21 10 -3
24 1 31 10 7 8 9 15 4 15 -16 1 61 39 79 40 10 0 22 12 27 26 6 14 19 28 30
31 11 3 20 10 20 15 0 6 7 7 16 4 9 -3 19 -6 22 -6z m-243 -170 c-3 -5 -15
-10 -26 -10 -10 0 -19 5 -19 10 0 6 12 10 26 10 14 0 23 -4 19 -10z m355 -520
c-8 -5 -17 -7 -19 -4 -3 3 1 9 9 14 8 5 17 7 19 4 3 -3 -1 -9 -9 -14z"/>
<path d="M3240 6543 c0 -16 22 -31 55 -37 29 -6 29 -6 5 4 -13 6 -33 18 -42
27 -10 9 -18 11 -18 6z"/>
<path d="M2869 5926 c16 -19 44 -21 39 -3 -3 6 -15 14 -28 15 -21 3 -22 2 -11
-12z"/>
<path d="M3002 5914 c10 -10 20 -15 24 -12 3 4 -5 12 -18 18 -22 12 -22 12 -6
-6z"/>
<path d="M3816 6924 c-9 -24 -7 -34 7 -34 14 0 39 35 30 44 -12 11 -31 6 -37
-10z"/>
<path d="M2015 6906 c-22 -16 -14 -46 13 -46 18 0 42 18 42 32 0 17 -37 27
-55 14z"/>
<path d="M3871 6877 c-14 -18 -7 -74 15 -116 13 -24 14 -22 13 34 0 33 -4 68
-8 78 -6 17 -8 17 -20 4z"/>
<path d="M1915 6847 c-11 -17 -15 -42 -13 -79 l3 -53 28 56 c31 64 32 72 13
88 -12 10 -18 8 -31 -12z"/>
<path d="M2118 6853 c6 -2 18 -2 25 0 6 3 1 5 -13 5 -14 0 -19 -2 -12 -5z"/>
<path d="M3840 6660 c0 -71 13 -108 23 -68 11 40 8 93 -8 114 -13 17 -14 13
-15 -46z"/>
<path d="M1892 6690 c0 -14 2 -19 5 -12 2 6 2 18 0 25 -3 6 -5 1 -5 -13z"/>
<path d="M1987 6656 c-46 -49 -51 -69 -32 -120 10 -25 21 -46 25 -46 5 0 11
19 15 43 4 23 18 59 32 79 40 60 7 95 -40 44z"/>
<path d="M2718 6503 c6 -2 18 -2 25 0 6 3 1 5 -13 5 -14 0 -19 -2 -12 -5z"/>
<path d="M2388 6483 c7 -3 16 -2 19 1 4 3 -2 6 -13 5 -11 0 -14 -3 -6 -6z"/>
<path d="M2050 6357 c0 -26 4 -37 15 -37 12 0 14 7 9 28 -11 44 -24 50 -24 9z"/>
<path d="M2035 6278 c-13 -39 -11 -43 18 -40 22 3 27 -1 27 -18 0 -12 3 -19 8
-17 4 3 7 20 7 39 0 25 -4 33 -18 33 -10 0 -21 6 -26 13 -6 10 -10 8 -16 -10z"/>
<path d="M3677 5378 c-7 -129 -42 -280 -123 -525 -13 -40 -21 -79 -18 -87 3
-8 -3 -63 -15 -123 -19 -102 -44 -275 -91 -618 -11 -82 -49 -323 -85 -535 -35
-212 -82 -527 -105 -700 -82 -630 -90 -696 -100 -780 -6 -47 -13 -101 -16
-120 -14 -81 -26 22 -30 263 -2 137 -6 252 -9 256 -2 5 -9 242 -15 527 -5 286
-14 553 -19 594 -6 41 -15 163 -21 270 -14 247 -24 323 -50 383 -60 135 -10
287 156 473 35 40 64 76 64 82 0 12 79 21 86 10 8 -12 24 -10 24 3 0 13 -118
137 -144 151 -15 8 -23 6 -35 -9 -25 -30 -163 -71 -294 -88 -65 -8 -123 -13
-128 -9 -5 3 -9 13 -9 23 0 10 -7 24 -15 31 -20 16 -72 -19 -147 -98 -49 -52
-54 -75 -10 -56 27 11 45 4 75 -30 37 -41 113 -198 133 -275 15 -59 14 -62 -6
-90 -23 -34 -101 -224 -119 -291 -21 -81 -50 -351 -60 -565 -26 -504 -33 -784
-44 -1660 -12 -1008 -13 -1115 -2 -1518 l7 -267 1730 2 1729 3 35 105 c50 153
64 228 64 348 0 73 8 145 24 227 13 66 27 145 31 175 7 65 -14 207 -45 299
-24 71 -28 137 -11 169 31 58 23 218 -20 392 -27 107 -25 179 6 240 14 27 25
64 25 81 0 18 -23 81 -52 143 -52 109 -53 113 -51 196 1 47 5 117 8 155 6 69
6 72 -30 125 -76 112 -78 125 -39 221 17 40 27 85 28 121 1 49 -5 68 -46 147
-43 82 -48 98 -48 158 0 58 5 76 40 144 35 69 40 86 40 147 0 94 -21 148 -106
277 -99 151 -145 246 -202 415 -27 80 -77 212 -112 295 -52 123 -72 158 -110
196 -45 45 -48 46 -136 57 -108 14 -153 25 -409 103 -110 34 -267 81 -350 106
-82 25 -204 70 -270 98 -67 29 -152 63 -190 74 -38 12 -92 36 -120 53 -67 42
-172 131 -208 176 -16 20 -30 38 -31 40 -2 1 -6 -48 -9 -110z m1238 -2059 c4
-5 -3 -34 -15 -63 l-21 -53 -355 -1 c-195 -1 -359 -4 -364 -7 -6 -3 -10 -17
-10 -30 0 -32 -10 -56 -21 -49 -5 3 -9 33 -9 68 l0 62 163 18 c89 9 180 21
202 26 22 5 90 12 150 15 61 4 126 11 145 15 52 12 128 11 135 -1z"/>
<path d="M2126 5429 c-29 -30 -63 -56 -249 -184 -111 -77 -375 -202 -532 -253
-50 -16 -104 -36 -120 -45 -64 -33 -420 -137 -504 -147 -81 -10 -88 -13 -128
-52 -47 -46 -79 -112 -94 -193 -11 -61 -99 -333 -155 -482 -34 -91 -37 -105
-35 -199 1 -76 -4 -127 -22 -205 -29 -124 -45 -240 -51 -370 -3 -53 -10 -108
-16 -123 -5 -15 -15 -114 -20 -219 -6 -106 -14 -226 -20 -267 -14 -106 -20
-207 -31 -473 -13 -332 -23 -435 -49 -503 -14 -38 -24 -91 -27 -149 -5 -72
-11 -101 -34 -147 -35 -69 -35 -71 -7 -109 20 -27 21 -33 10 -87 -15 -71 -15
-124 -1 -177 6 -22 12 -103 14 -180 1 -77 7 -183 13 -235 22 -194 32 -266 43
-320 19 -93 49 -223 60 -267 l12 -43 858 0 858 0 14 28 c78 150 117 232 117
244 0 8 8 30 17 49 9 18 16 48 15 67 -3 33 23 101 42 114 8 5 7 14 -2 28 -10
17 -10 24 4 45 9 13 13 29 9 36 -4 6 -2 15 6 19 17 11 49 224 37 242 -8 10
-11 10 -15 1 -10 -25 -25 -13 -18 14 10 42 6 1416 -5 1538 -15 159 -40 699
-47 1006 -5 258 9 809 27 1039 5 63 14 171 19 240 6 69 12 233 15 366 3 132
10 271 16 308 7 37 10 69 8 71 -2 2 -17 -9 -32 -26z m-968 -3877 c20 -13 32
-71 32 -155 0 -84 -11 -117 -38 -117 -24 0 -138 119 -146 153 -7 28 -6 28 69
96 31 29 61 37 83 23z m8 -459 c24 -31 17 -89 -23 -218 -18 -57 -48 -95 -75
-95 -24 0 -33 42 -19 89 8 28 8 46 0 71 -20 57 9 120 74 156 30 16 28 16 43
-3z m792 -379 c-4 -3 2 -14 13 -25 11 -11 19 -33 19 -51 0 -25 -3 -29 -10 -18
-5 8 -10 22 -10 30 0 8 -4 22 -10 30 -7 12 -12 12 -29 -5 -12 -10 -24 -15 -27
-12 -11 11 5 37 28 47 28 11 33 12 26 4z m-71 -76 c-3 -8 -6 -5 -6 6 -1 11 2
17 5 13 3 -3 4 -12 1 -19z m2 -78 c1 -13 0 -13 -9 0 -5 8 -9 24 -9 35 l0 20 9
-20 c5 -11 9 -27 9 -35z"/>
</g>
</svg>
